<svg id="visual" viewBox="0 0 1144 50" width="1144" height="50" xmlns="http://www.w3.org/2000/svg" xmlns:xlink="http://www.w3.org/1999/xlink" version="1.1"><path d="M0 2L8.7 4.5C17.3 7 34.7 12 52 15.5C69.3 19 86.7 21 104 21.5C121.3 22 138.7 21 156 21C173.3 21 190.7 22 208 18.8C225.3 15.7 242.7 8.3 260 8.2C277.3 8 294.7 15 312 15.5C329.3 16 346.7 10 364 9.8C381.3 9.7 398.7 15.3 416 17.3C433.3 19.3 450.7 17.7 468 17.2C485.3 16.7 502.7 17.3 520 18.7C537.3 20 554.7 22 572 20.2C589.3 18.3 606.7 12.7 624 12.8C641.3 13 658.7 19 676 21C693.3 23 710.7 21 728 18.5C745.3 16 762.7 13 780 11.3C797.3 9.7 814.7 9.3 832 10.7C849.3 12 866.7 15 884 15.5C901.3 16 918.7 14 936 11.7C953.3 9.3 970.7 6.7 988 6.5C1005.3 6.3 1022.7 8.7 1040 10.8C1057.3 13 1074.7 15 1092 13.3C1109.3 11.7 1126.7 6.3 1135.3 3.7L1144 1L1144 51L1135.3 51C1126.7 51 1109.3 51 1092 51C1074.7 51 1057.3 51 1040 51C1022.7 51 1005.3 51 988 51C970.7 51 953.3 51 936 51C918.7 51 901.3 51 884 51C866.7 51 849.3 51 832 51C814.7 51 797.3 51 780 51C762.7 51 745.3 51 728 51C710.7 51 693.3 51 676 51C658.7 51 641.3 51 624 51C606.7 51 589.3 51 572 51C554.7 51 537.3 51 520 51C502.7 51 485.3 51 468 51C450.7 51 433.3 51 416 51C398.7 51 381.3 51 364 51C346.7 51 329.3 51 312 51C294.7 51 277.3 51 260 51C242.7 51 225.3 51 208 51C190.7 51 173.3 51 156 51C138.7 51 121.3 51 104 51C86.7 51 69.3 51 52 51C34.7 51 17.3 51 8.7 51L0 51Z" fill="#e49bff"></path><path d="M0 7L8.7 10.2C17.3 13.3 34.7 19.7 52 21.8C69.3 24 86.7 22 104 21.5C121.3 21 138.7 22 156 20C173.3 18 190.7 13 208 12.5C225.3 12 242.7 16 260 16.5C277.3 17 294.7 14 312 13.5C329.3 13 346.7 15 364 17.5C381.3 20 398.7 23 416 21.8C433.3 20.7 450.7 15.3 468 13.5C485.3 11.7 502.7 13.3 520 16.2C537.3 19 554.7 23 572 25.2C589.3 27.3 606.7 27.7 624 25.7C641.3 23.7 658.7 19.3 676 16.3C693.3 13.3 710.7 11.7 728 12.5C745.3 13.3 762.7 16.7 780 16.8C797.3 17 814.7 14 832 14.5C849.3 15 866.7 19 884 21C901.3 23 918.7 23 936 22.7C953.3 22.3 970.7 21.7 988 21.8C1005.3 22 1022.7 23 1040 22.8C1057.3 22.7 1074.7 21.3 1092 20.2C1109.3 19 1126.7 18 1135.3 17.5L1144 17L1144 51L1135.3 51C1126.7 51 1109.3 51 1092 51C1074.7 51 1057.3 51 1040 51C1022.7 51 1005.3 51 988 51C970.7 51 953.3 51 936 51C918.7 51 901.3 51 884 51C866.7 51 849.3 51 832 51C814.7 51 797.3 51 780 51C762.7 51 745.3 51 728 51C710.7 51 693.3 51 676 51C658.7 51 641.3 51 624 51C606.7 51 589.3 51 572 51C554.7 51 537.3 51 520 51C502.7 51 485.3 51 468 51C450.7 51 433.3 51 416 51C398.7 51 381.3 51 364 51C346.7 51 329.3 51 312 51C294.7 51 277.3 51 260 51C242.7 51 225.3 51 208 51C190.7 51 173.3 51 156 51C138.7 51 121.3 51 104 51C86.7 51 69.3 51 52 51C34.7 51 17.3 51 8.7 51L0 51Z" fill="#d58bf9"></path><path d="M0 33L8.7 32.8C17.3 32.7 34.7 32.3 52 31.3C69.3 30.3 86.7 28.7 104 28C121.3 27.3 138.7 27.7 156 25.7C173.3 23.7 190.7 19.3 208 19.3C225.3 19.3 242.7 23.7 260 24.3C277.3 25 294.7 22 312 22.5C329.3 23 346.7 27 364 27.2C381.3 27.3 398.7 23.7 416 21.8C433.3 20 450.7 20 468 21C485.3 22 502.7 24 520 24.5C537.3 25 554.7 24 572 23.8C589.3 23.7 606.7 24.3 624 25.5C641.3 26.7 658.7 28.3 676 26.5C693.3 24.7 710.7 19.3 728 17.7C745.3 16 762.7 18 780 19.5C797.3 21 814.7 22 832 21.8C849.3 21.7 866.7 20.3 884 20.2C901.3 20 918.7 21 936 20.2C953.3 19.3 970.7 16.7 988 18.5C1005.3 20.3 1022.7 26.7 1040 27.7C1057.3 28.7 1074.7 24.3 1092 21.8C1109.3 19.3 1126.7 18.7 1135.3 18.3L1144 18L1144 51L1135.3 51C1126.7 51 1109.3 51 1092 51C1074.7 51 1057.3 51 1040 51C1022.7 51 1005.3 51 988 51C970.7 51 953.3 51 936 51C918.7 51 901.3 51 884 51C866.7 51 849.3 51 832 51C814.7 51 797.3 51 780 51C762.7 51 745.3 51 728 51C710.7 51 693.3 51 676 51C658.7 51 641.3 51 624 51C606.7 51 589.3 51 572 51C554.7 51 537.3 51 520 51C502.7 51 485.3 51 468 51C450.7 51 433.3 51 416 51C398.7 51 381.3 51 364 51C346.7 51 329.3 51 312 51C294.7 51 277.3 51 260 51C242.7 51 225.3 51 208 51C190.7 51 173.3 51 156 51C138.7 51 121.3 51 104 51C86.7 51 69.3 51 52 51C34.7 51 17.3 51 8.7 51L0 51Z" fill="#c57bf3"></path><path d="M0 35L8.7 32.5C17.3 30 34.7 25 52 22.3C69.3 19.7 86.7 19.3 104 20.2C121.3 21 138.7 23 156 25.8C173.3 28.7 190.7 32.3 208 33C225.3 33.7 242.7 31.3 260 28.8C277.3 26.3 294.7 23.7 312 24.7C329.3 25.7 346.7 30.3 364 30C381.3 29.7 398.7 24.3 416 22.8C433.3 21.3 450.7 23.7 468 26.5C485.3 29.3 502.7 32.7 520 31.7C537.3 30.7 554.7 25.3 572 24.8C589.3 24.3 606.7 28.7 624 28.8C641.3 29 658.7 25 676 25.5C693.3 26 710.7 31 728 31C745.3 31 762.7 26 780 23.8C797.3 21.7 814.7 22.3 832 24C849.3 25.7 866.7 28.3 884 29.5C901.3 30.7 918.7 30.3 936 28.3C953.3 26.3 970.7 22.7 988 22.3C1005.3 22 1022.7 25 1040 26.8C1057.3 28.7 1074.7 29.3 1092 29C1109.3 28.7 1126.7 27.3 1135.3 26.7L1144 26L1144 51L1135.3 51C1126.7 51 1109.3 51 1092 51C1074.7 51 1057.3 51 1040 51C1022.7 51 1005.3 51 988 51C970.7 51 953.3 51 936 51C918.7 51 901.3 51 884 51C866.7 51 849.3 51 832 51C814.7 51 797.3 51 780 51C762.7 51 745.3 51 728 51C710.7 51 693.3 51 676 51C658.7 51 641.3 51 624 51C606.7 51 589.3 51 572 51C554.7 51 537.3 51 520 51C502.7 51 485.3 51 468 51C450.7 51 433.3 51 416 51C398.7 51 381.3 51 364 51C346.7 51 329.3 51 312 51C294.7 51 277.3 51 260 51C242.7 51 225.3 51 208 51C190.7 51 173.3 51 156 51C138.7 51 121.3 51 104 51C86.7 51 69.3 51 52 51C34.7 51 17.3 51 8.7 51L0 51Z" fill="#b46bee"></path><path d="M0 29L8.7 29.2C17.3 29.3 34.7 29.7 52 30.5C69.3 31.3 86.7 32.7 104 33C121.3 33.3 138.7 32.7 156 32.2C173.3 31.7 190.7 31.3 208 30.3C225.3 29.3 242.7 27.7 260 27.5C277.3 27.3 294.7 28.7 312 30.7C329.3 32.7 346.7 35.3 364 36.7C381.3 38 398.7 38 416 36C433.3 34 450.7 30 468 29.7C485.3 29.3 502.7 32.7 520 34.3C537.3 36 554.7 36 572 36.2C589.3 36.3 606.7 36.7 624 36C641.3 35.3 658.7 33.7 676 32.2C693.3 30.7 710.7 29.3 728 29.3C745.3 29.3 762.7 30.7 780 31.7C797.3 32.7 814.7 33.3 832 33.8C849.3 34.3 866.7 34.7 884 34.7C901.3 34.7 918.7 34.3 936 34.2C953.3 34 970.7 34 988 33.3C1005.3 32.7 1022.7 31.3 1040 31.5C1057.3 31.7 1074.7 33.3 1092 35C1109.3 36.7 1126.7 38.3 1135.3 39.2L1144 40L1144 51L1135.3 51C1126.7 51 1109.3 51 1092 51C1074.7 51 1057.3 51 1040 51C1022.7 51 1005.3 51 988 51C970.7 51 953.3 51 936 51C918.7 51 901.3 51 884 51C866.7 51 849.3 51 832 51C814.7 51 797.3 51 780 51C762.7 51 745.3 51 728 51C710.7 51 693.3 51 676 51C658.7 51 641.3 51 624 51C606.7 51 589.3 51 572 51C554.7 51 537.3 51 520 51C502.7 51 485.3 51 468 51C450.7 51 433.3 51 416 51C398.7 51 381.3 51 364 51C346.7 51 329.3 51 312 51C294.7 51 277.3 51 260 51C242.7 51 225.3 51 208 51C190.7 51 173.3 51 156 51C138.7 51 121.3 51 104 51C86.7 51 69.3 51 52 51C34.7 51 17.3 51 8.7 51L0 51Z" fill="#a25ce9"></path><path d="M0 41L8.7 41C17.3 41 34.7 41 52 41.2C69.3 41.3 86.7 41.7 104 41.3C121.3 41 138.7 40 156 39.5C173.3 39 190.7 39 208 38.3C225.3 37.7 242.7 36.3 260 36.3C277.3 36.3 294.7 37.7 312 38.3C329.3 39 346.7 39 364 37.7C381.3 36.3 398.7 33.7 416 34.2C433.3 34.7 450.7 38.3 468 39.8C485.3 41.3 502.7 40.7 520 39C537.3 37.3 554.7 34.7 572 33.7C589.3 32.7 606.7 33.3 624 34.3C641.3 35.3 658.7 36.7 676 36.3C693.3 36 710.7 34 728 35C745.3 36 762.7 40 780 39.8C797.3 39.7 814.7 35.3 832 34.3C849.3 33.3 866.7 35.7 884 36C901.3 36.3 918.7 34.7 936 35.2C953.3 35.7 970.7 38.3 988 40C1005.3 41.7 1022.7 42.3 1040 42.5C1057.3 42.7 1074.7 42.3 1092 40.7C1109.3 39 1126.7 36 1135.3 34.5L1144 33L1144 51L1135.3 51C1126.7 51 1109.3 51 1092 51C1074.7 51 1057.3 51 1040 51C1022.7 51 1005.3 51 988 51C970.7 51 953.3 51 936 51C918.7 51 901.3 51 884 51C866.7 51 849.3 51 832 51C814.7 51 797.3 51 780 51C762.7 51 745.3 51 728 51C710.7 51 693.3 51 676 51C658.7 51 641.3 51 624 51C606.7 51 589.3 51 572 51C554.7 51 537.3 51 520 51C502.7 51 485.3 51 468 51C450.7 51 433.3 51 416 51C398.7 51 381.3 51 364 51C346.7 51 329.3 51 312 51C294.7 51 277.3 51 260 51C242.7 51 225.3 51 208 51C190.7 51 173.3 51 156 51C138.7 51 121.3 51 104 51C86.7 51 69.3 51 52 51C34.7 51 17.3 51 8.7 51L0 51Z" fill="#8f4de4"></path><path d="M0 48L8.7 47.7C17.3 47.3 34.7 46.7 52 46.5C69.3 46.3 86.7 46.7 104 45.3C121.3 44 138.7 41 156 40.7C173.3 40.3 190.7 42.7 208 44.2C225.3 45.7 242.7 46.3 260 46C277.3 45.7 294.7 44.3 312 43C329.3 41.7 346.7 40.3 364 39.5C381.3 38.7 398.7 38.3 416 39.2C433.3 40 450.7 42 468 42.3C485.3 42.7 502.7 41.3 520 41.5C537.3 41.7 554.7 43.3 572 44.7C589.3 46 606.7 47 624 46C641.3 45 658.7 42 676 40.3C693.3 38.7 710.7 38.3 728 39.5C745.3 40.7 762.7 43.3 780 44.8C797.3 46.3 814.7 46.7 832 46C849.3 45.3 866.7 43.7 884 42.3C901.3 41 918.7 40 936 39.2C953.3 38.3 970.7 37.7 988 38.2C1005.3 38.7 1022.7 40.3 1040 40.7C1057.3 41 1074.7 40 1092 39.5C1109.3 39 1126.7 39 1135.3 39L1144 39L1144 51L1135.3 51C1126.7 51 1109.3 51 1092 51C1074.7 51 1057.3 51 1040 51C1022.7 51 1005.3 51 988 51C970.7 51 953.3 51 936 51C918.7 51 901.3 51 884 51C866.7 51 849.3 51 832 51C814.7 51 797.3 51 780 51C762.7 51 745.3 51 728 51C710.7 51 693.3 51 676 51C658.7 51 641.3 51 624 51C606.7 51 589.3 51 572 51C554.7 51 537.3 51 520 51C502.7 51 485.3 51 468 51C450.7 51 433.3 51 416 51C398.7 51 381.3 51 364 51C346.7 51 329.3 51 312 51C294.7 51 277.3 51 260 51C242.7 51 225.3 51 208 51C190.7 51 173.3 51 156 51C138.7 51 121.3 51 104 51C86.7 51 69.3 51 52 51C34.7 51 17.3 51 8.7 51L0 51Z" fill="#793fdf"></path></svg>