<svg id="visual" viewBox="0 0 1440 150" width="1440" height="150" xmlns="http://www.w3.org/2000/svg" xmlns:xlink="http://www.w3.org/1999/xlink" version="1.1"><path d="M0 67L50 72L99 78L149 79L199 72L248 80L298 73L348 70L397 74L447 69L497 68L546 75L596 74L646 81L695 75L745 72L794 72L844 78L894 81L943 73L993 80L1043 73L1092 79L1142 76L1192 71L1241 80L1291 79L1341 81L1390 75L1440 68L1440 0L1390 0L1341 0L1291 0L1241 0L1192 0L1142 0L1092 0L1043 0L993 0L943 0L894 0L844 0L794 0L745 0L695 0L646 0L596 0L546 0L497 0L447 0L397 0L348 0L298 0L248 0L199 0L149 0L99 0L50 0L0 0Z" fill="#793fdf" stroke-linecap="square" stroke-linejoin="bevel"></path></svg>